<svg width="24" height="24" viewBox="0 0 24 24" fill="none" xmlns="http://www.w3.org/2000/svg">
<rect width="24" height="24" fill="white" fill-opacity="0.01"/>
<path d="M13.6 5.6002C13.6 4.27471 12.5255 3.2002 11.2 3.2002C9.87452 3.2002 8.8 4.27471 8.8 5.6002V6.4002H4V11.2002H4.8C6.12548 11.2002 7.2 12.2747 7.2 13.6002C7.2 14.9257 6.12548 16.0002 4.8 16.0002H4V20.8002H8.8V20.0002C8.8 18.6747 9.87452 17.6002 11.2 17.6002C12.5255 17.6002 13.6 18.6747 13.6 20.0002V20.8002H18.4V16.0002H19.2C20.5255 16.0002 21.6 14.9257 21.6 13.6002C21.6 12.2747 20.5255 11.2002 19.2 11.2002H18.4V6.4002H13.6V5.6002Z" stroke="#272727" stroke-width="1.6" stroke-linejoin="round"/>
</svg>
