<svg preserveAspectRatio="none" width="1168" height="830" viewBox="0 0 1168 830" fill="none" xmlns="http://www.w3.org/2000/svg">
<rect x="6.05144" y="-6.05144" width="1103.9" height="780.897" rx="26.2573" transform="matrix(1 0 0 -1 49 814.897)" stroke="#12285F" stroke-width="12.1029"/>
<path d="M748.365 6.00015L797.816 36.098" stroke="#12285F" stroke-width="12.1029" stroke-miterlimit="10"/>
<path d="M819.437 6.00015L868.888 36.098" stroke="#12285F" stroke-width="12.1029" stroke-miterlimit="10"/>
<path d="M890.508 6.00015L939.96 36.098" stroke="#12285F" stroke-width="12.1029" stroke-miterlimit="10"/>
<path d="M961.58 6.00015L1011.03 36.098" stroke="#12285F" stroke-width="12.1029" stroke-miterlimit="10"/>
<path d="M1032.65 6.00015L1082.1 36.098" stroke="#12285F" stroke-width="12.1029" stroke-miterlimit="10"/>
<path d="M1103.72 6.00015L1153.17 36.098" stroke="#12285F" stroke-width="12.1029" stroke-miterlimit="10"/>
<path d="M568.789 6.00015L618.24 36.098" stroke="#12285F" stroke-width="12.1029" stroke-miterlimit="10"/>
<path d="M688.508 6.00015L737.96 36.098" stroke="#12285F" stroke-width="12.1029" stroke-miterlimit="10"/>
<path d="M508.922 6.00015L558.373 36.098" stroke="#12285F" stroke-width="12.1029" stroke-miterlimit="10"/>
<path d="M628.648 6.00015L678.1 36.098" stroke="#12285F" stroke-width="12.1029" stroke-miterlimit="10"/>
<path d="M449.062 6.00015L498.514 36.098" stroke="#12285F" stroke-width="12.1029" stroke-miterlimit="10"/>
<path d="M389.193 6.00015L438.645 36.098" stroke="#12285F" stroke-width="12.1029" stroke-miterlimit="10"/>
<path d="M209.617 6.00015L259.068 36.098" stroke="#12285F" stroke-width="12.1029" stroke-miterlimit="10"/>
<path d="M329.336 6.00015L378.787 36.098" stroke="#12285F" stroke-width="12.1029" stroke-miterlimit="10"/>
<path d="M149.75 6.00015L199.201 36.098" stroke="#12285F" stroke-width="12.1029" stroke-miterlimit="10"/>
<path d="M269.477 6.00015L318.928 36.098" stroke="#12285F" stroke-width="12.1029" stroke-miterlimit="10"/>
<path d="M89.8901 6.00015L139.341 36.098" stroke="#12285F" stroke-width="12.1029" stroke-miterlimit="10"/>
<path d="M32.6333 10.7559L82.0845 40.8538" stroke="#12285F" stroke-width="12.1029" stroke-miterlimit="10"/>
<path d="M4 36.1105L53.4512 66.2084" stroke="#12285F" stroke-width="12.1029" stroke-miterlimit="10"/>
<path d="M4 74.1211L53.4512 104.219" stroke="#12285F" stroke-width="12.1029" stroke-miterlimit="10"/>
<path d="M4 362.435L53.4512 392.533" stroke="#12285F" stroke-width="12.1029" stroke-miterlimit="10"/>
<path d="M4 218.274L53.4512 248.371" stroke="#12285F" stroke-width="12.1029" stroke-miterlimit="10"/>
<path d="M4 506.582L53.4512 536.68" stroke="#12285F" stroke-width="12.1029" stroke-miterlimit="10"/>
<path d="M4 687.17L53.4512 717.268" stroke="#12285F" stroke-width="12.1029" stroke-miterlimit="10"/>
<path d="M4 146.993L53.4512 177.091" stroke="#12285F" stroke-width="12.1029" stroke-miterlimit="10"/>
<path d="M4 435.298L53.4512 465.396" stroke="#12285F" stroke-width="12.1029" stroke-miterlimit="10"/>
<path d="M4 291.146L53.4512 321.244" stroke="#12285F" stroke-width="12.1029" stroke-miterlimit="10"/>
<path d="M4 579.449L53.4512 609.547" stroke="#12285F" stroke-width="12.1029" stroke-miterlimit="10"/>
<path d="M4 760.033L53.4512 790.131" stroke="#12285F" stroke-width="12.1029" stroke-miterlimit="10"/>
<path d="M4 110.553L53.4512 140.651" stroke="#12285F" stroke-width="12.1029" stroke-miterlimit="10"/>
<path d="M4 398.866L53.4512 428.964" stroke="#12285F" stroke-width="12.1029" stroke-miterlimit="10"/>
<path d="M4 254.714L53.4512 284.812" stroke="#12285F" stroke-width="12.1029" stroke-miterlimit="10"/>
<path d="M4 543.019L53.4512 573.117" stroke="#12285F" stroke-width="12.1029" stroke-miterlimit="10"/>
<path d="M4 723.602L53.4512 753.7" stroke="#12285F" stroke-width="12.1029" stroke-miterlimit="10"/>
<path d="M4 181.837L53.4512 211.935" stroke="#12285F" stroke-width="12.1029" stroke-miterlimit="10"/>
<path d="M4 470.141L53.4512 500.239" stroke="#12285F" stroke-width="12.1029" stroke-miterlimit="10"/>
<path d="M4 650.734L53.4512 680.831" stroke="#12285F" stroke-width="12.1029" stroke-miterlimit="10"/>
<path d="M4 325.988L53.4512 356.086" stroke="#12285F" stroke-width="12.1029" stroke-miterlimit="10"/>
<path d="M4 614.302L53.4512 644.4" stroke="#12285F" stroke-width="12.1029" stroke-miterlimit="10"/>
<rect x="6.05144" y="-6.05144" width="1109.83" height="786.688" rx="26.2573" transform="matrix(1 0 0 -1 46.0625 817.258)" stroke="#12285F" stroke-width="12.1029"/>
</svg>
