<svg width="60" height="60" viewBox="0 0 60 60" fill="none" xmlns="http://www.w3.org/2000/svg">
<path d="M30 5.625C25.1791 5.625 20.4664 7.05457 16.458 9.73293C12.4495 12.4113 9.32533 16.2181 7.48045 20.6721C5.63556 25.126 5.15286 30.027 6.09337 34.7553C7.03388 39.4836 9.35538 43.8268 12.7643 47.2357C16.1732 50.6446 20.5164 52.9661 25.2447 53.9066C29.973 54.8472 34.874 54.3644 39.3279 52.5196C43.7819 50.6747 47.5887 47.5505 50.2671 43.542C52.9454 39.5336 54.375 34.8209 54.375 30C54.3682 23.5374 51.7979 17.3415 47.2282 12.7718C42.6585 8.20209 36.4626 5.63182 30 5.625ZM31.875 50.5383V35.625H37.5C37.9973 35.625 38.4742 35.4275 38.8258 35.0758C39.1775 34.7242 39.375 34.2473 39.375 33.75C39.375 33.2527 39.1775 32.7758 38.8258 32.4242C38.4742 32.0725 37.9973 31.875 37.5 31.875H31.875V26.25C31.875 25.2554 32.2701 24.3016 32.9734 23.5983C33.6766 22.8951 34.6304 22.5 35.625 22.5H39.375C39.8723 22.5 40.3492 22.3025 40.7008 21.9508C41.0525 21.5992 41.25 21.1223 41.25 20.625C41.25 20.1277 41.0525 19.6508 40.7008 19.2992C40.3492 18.9475 39.8723 18.75 39.375 18.75H35.625C33.6359 18.75 31.7282 19.5402 30.3217 20.9467C28.9152 22.3532 28.125 24.2609 28.125 26.25V31.875H22.5C22.0027 31.875 21.5258 32.0725 21.1742 32.4242C20.8226 32.7758 20.625 33.2527 20.625 33.75C20.625 34.2473 20.8226 34.7242 21.1742 35.0758C21.5258 35.4275 22.0027 35.625 22.5 35.625H28.125V50.5383C22.8394 50.0558 17.9432 47.5542 14.4549 43.5538C10.9667 39.5535 9.15487 34.3623 9.39637 29.0602C9.63788 23.7581 11.9141 18.7532 15.7516 15.0865C19.5891 11.4198 24.6924 9.37369 30 9.37369C35.3076 9.37369 40.4109 11.4198 44.2484 15.0865C48.0859 18.7532 50.3621 23.7581 50.6036 29.0602C50.8452 34.3623 49.0333 39.5535 45.5451 43.5538C42.0568 47.5542 37.1606 50.0558 31.875 50.5383Z" fill="#12285F"/>
</svg>
