<svg width="60" height="60" viewBox="0 0 60 60" fill="none" xmlns="http://www.w3.org/2000/svg">
<path d="M50.625 5.625H9.375C8.38044 5.625 7.42661 6.02009 6.72335 6.72335C6.02009 7.42661 5.625 8.38044 5.625 9.375V50.625C5.625 51.6196 6.02009 52.5734 6.72335 53.2766C7.42661 53.9799 8.38044 54.375 9.375 54.375H50.625C51.6196 54.375 52.5734 53.9799 53.2766 53.2766C53.9799 52.5734 54.375 51.6196 54.375 50.625V9.375C54.375 8.38044 53.9799 7.42661 53.2766 6.72335C52.5734 6.02009 51.6196 5.625 50.625 5.625ZM50.625 50.625H9.375V9.375H50.625V50.625ZM22.5 26.25V41.25C22.5 41.7473 22.3025 42.2242 21.9508 42.5758C21.5992 42.9275 21.1223 43.125 20.625 43.125C20.1277 43.125 19.6508 42.9275 19.2992 42.5758C18.9475 42.2242 18.75 41.7473 18.75 41.25V26.25C18.75 25.7527 18.9475 25.2758 19.2992 24.9242C19.6508 24.5725 20.1277 24.375 20.625 24.375C21.1223 24.375 21.5992 24.5725 21.9508 24.9242C22.3025 25.2758 22.5 25.7527 22.5 26.25ZM43.125 32.8125V41.25C43.125 41.7473 42.9275 42.2242 42.5758 42.5758C42.2242 42.9275 41.7473 43.125 41.25 43.125C40.7527 43.125 40.2758 42.9275 39.9242 42.5758C39.5725 42.2242 39.375 41.7473 39.375 41.25V32.8125C39.375 31.5693 38.8811 30.377 38.0021 29.4979C37.123 28.6189 35.9307 28.125 34.6875 28.125C33.4443 28.125 32.252 28.6189 31.3729 29.4979C30.4939 30.377 30 31.5693 30 32.8125V41.25C30 41.7473 29.8025 42.2242 29.4508 42.5758C29.0992 42.9275 28.6223 43.125 28.125 43.125C27.6277 43.125 27.1508 42.9275 26.7992 42.5758C26.4475 42.2242 26.25 41.7473 26.25 41.25V26.25C26.2523 25.7907 26.4231 25.3483 26.73 25.0066C27.0369 24.6649 27.4586 24.4477 27.9149 24.3963C28.3713 24.3449 28.8307 24.4627 29.206 24.7275C29.5812 24.9923 29.8463 25.3856 29.9508 25.8328C31.2192 24.9724 32.698 24.4737 34.2285 24.3903C35.7589 24.3069 37.2832 24.642 38.6376 25.3595C39.9919 26.0771 41.1253 27.15 41.9159 28.4631C42.7065 29.7761 43.1245 31.2798 43.125 32.8125ZM23.4375 19.6875C23.4375 20.2438 23.2726 20.7875 22.9635 21.25C22.6545 21.7126 22.2152 22.073 21.7013 22.2859C21.1874 22.4988 20.6219 22.5545 20.0763 22.446C19.5307 22.3374 19.0296 22.0696 18.6363 21.6762C18.2429 21.2829 17.9751 20.7818 17.8665 20.2362C17.758 19.6906 17.8137 19.1251 18.0266 18.6112C18.2395 18.0973 18.5999 17.658 19.0625 17.349C19.525 17.0399 20.0687 16.875 20.625 16.875C21.3709 16.875 22.0863 17.1713 22.6137 17.6988C23.1412 18.2262 23.4375 18.9416 23.4375 19.6875Z" fill="#12285F"/>
</svg>
