<svg width="60" height="60" viewBox="0 0 60 60" fill="none" xmlns="http://www.w3.org/2000/svg">
<path d="M43.125 7.5H16.875C14.3886 7.5 12.004 8.48772 10.2459 10.2459C8.48772 12.004 7.5 14.3886 7.5 16.875V45C7.5 47.4864 8.48772 49.871 10.2459 51.6291C12.004 53.3873 14.3886 54.375 16.875 54.375H37.5C37.9973 54.375 38.4742 54.1775 38.8258 53.8258C39.1775 53.4742 39.375 52.9973 39.375 52.5C39.375 52.0027 39.1775 51.5258 38.8258 51.1742C38.4742 50.8225 37.9973 50.625 37.5 50.625H16.875C15.3832 50.625 13.9524 50.0324 12.8975 48.9775C11.8426 47.9226 11.25 46.4918 11.25 45V43.125H43.125C44.3561 43.125 45.5752 42.8825 46.7127 42.4114C47.8501 41.9402 48.8836 41.2497 49.7541 40.3791C50.6247 39.5086 51.3152 38.4751 51.7864 37.3377C52.2575 36.2002 52.5 34.9811 52.5 33.75V16.875C52.5 14.3886 51.5123 12.004 49.7541 10.2459C47.996 8.48772 45.6114 7.5 43.125 7.5ZM48.75 33.75C48.75 35.2418 48.1574 36.6726 47.1025 37.7275C46.0476 38.7824 44.6168 39.375 43.125 39.375H11.25V16.875C11.25 15.3832 11.8426 13.9524 12.8975 12.8975C13.9524 11.8426 15.3832 11.25 16.875 11.25H43.125C44.6168 11.25 46.0476 11.8426 47.1025 12.8975C48.1574 13.9524 48.75 15.3832 48.75 16.875V33.75ZM43.125 24.375V31.875C43.125 32.3723 42.9275 32.8492 42.5758 33.2008C42.2242 33.5525 41.7473 33.75 41.25 33.75C40.7527 33.75 40.2758 33.5525 39.9242 33.2008C39.5725 32.8492 39.375 32.3723 39.375 31.875V24.375C39.375 23.3804 38.9799 22.4266 38.2766 21.7234C37.5734 21.0201 36.6196 20.625 35.625 20.625C34.6304 20.625 33.6766 21.0201 32.9734 21.7234C32.2701 22.4266 31.875 23.3804 31.875 24.375V31.875C31.875 32.3723 31.6775 32.8492 31.3258 33.2008C30.9742 33.5525 30.4973 33.75 30 33.75C29.5027 33.75 29.0258 33.5525 28.6742 33.2008C28.3225 32.8492 28.125 32.3723 28.125 31.875V24.375C28.125 23.3804 27.7299 22.4266 27.0266 21.7234C26.3234 21.0201 25.3696 20.625 24.375 20.625C23.3804 20.625 22.4266 21.0201 21.7234 21.7234C21.0201 22.4266 20.625 23.3804 20.625 24.375V31.875C20.625 32.3723 20.4275 32.8492 20.0758 33.2008C19.7242 33.5525 19.2473 33.75 18.75 33.75C18.2527 33.75 17.7758 33.5525 17.4242 33.2008C17.0725 32.8492 16.875 32.3723 16.875 31.875V24.375C16.8767 22.8523 17.3419 21.3662 18.2086 20.1143C19.0754 18.8623 20.3026 17.9039 21.7273 17.3663C23.1519 16.8288 24.7065 16.7376 26.1842 17.1049C27.6619 17.4722 28.9928 18.2806 30 19.4227C31.0072 18.2806 32.3381 17.4722 33.8158 17.1049C35.2935 16.7376 36.8481 16.8288 38.2727 17.3663C39.6974 17.9039 40.9246 18.8623 41.7914 20.1143C42.6581 21.3662 43.1233 22.8523 43.125 24.375Z" fill="#12285F"/>
</svg>
