<svg width="60" height="60" viewBox="0 0 60 60" fill="none" xmlns="http://www.w3.org/2000/svg">
<path d="M50.3315 49.6195L35.6596 26.5617L50.137 10.6359C50.4644 10.2669 50.6332 9.78359 50.6067 9.29091C50.5802 8.79824 50.3605 8.33586 49.9954 8.00404C49.6303 7.67221 49.1491 7.49768 48.6561 7.51827C48.1631 7.53887 47.6982 7.75293 47.362 8.11406L33.5714 23.2828L24.0815 8.36953C23.9123 8.10317 23.6786 7.88384 23.402 7.73184C23.1255 7.57984 22.8151 7.5001 22.4995 7.5H11.2495C10.9133 7.49984 10.5833 7.59006 10.2939 7.76123C10.0046 7.9324 9.76657 8.17822 9.60483 8.47294C9.44309 8.76766 9.36357 9.10045 9.37459 9.43645C9.38561 9.77246 9.48676 10.0993 9.66746 10.3828L24.3393 33.4383L9.862 49.3758C9.69293 49.5574 9.5616 49.7707 9.4756 50.0035C9.3896 50.2362 9.35065 50.4837 9.36101 50.7316C9.37137 50.9795 9.43083 51.2229 9.53594 51.4477C9.64105 51.6724 9.78972 51.8741 9.97335 52.041C10.157 52.2078 10.3719 52.3366 10.6056 52.4198C10.8394 52.503 11.0873 52.539 11.3351 52.5256C11.5829 52.5123 11.8255 52.4499 12.049 52.3421C12.2725 52.2343 12.4723 52.0833 12.637 51.8977L26.4276 36.7289L35.9175 51.6422C36.0881 51.9064 36.3224 52.1234 36.5988 52.2733C36.8753 52.4232 37.185 52.5012 37.4995 52.5H48.7495C49.0853 52.4999 49.4149 52.4096 49.7039 52.2385C49.9929 52.0675 50.2307 51.822 50.3924 51.5276C50.554 51.2333 50.6337 50.9009 50.623 50.5653C50.6123 50.2296 50.5116 49.903 50.3315 49.6195ZM38.5284 48.75L14.6643 11.25H21.4612L45.3346 48.75H38.5284Z" fill="#12285F"/>
</svg>
