<svg width="60" height="60" viewBox="0 0 60 60" fill="none" xmlns="http://www.w3.org/2000/svg">
<path d="M38.5406 28.4391L27.2906 20.9391C27.0082 20.7506 26.6799 20.6424 26.3407 20.626C26.0016 20.6096 25.6644 20.6855 25.365 20.8458C25.0657 21.006 24.8155 21.2446 24.6411 21.5359C24.4668 21.8272 24.3748 22.1605 24.375 22.5V37.5C24.3748 37.8395 24.4668 38.1728 24.6411 38.4641C24.8155 38.7555 25.0657 38.994 25.365 39.1542C25.6644 39.3145 26.0016 39.3905 26.3407 39.374C26.6799 39.3576 27.0082 39.2494 27.2906 39.0609L38.5406 31.5609C38.7978 31.3898 39.0087 31.1577 39.1546 30.8854C39.3005 30.6131 39.3768 30.3089 39.3768 30C39.3768 29.6911 39.3005 29.3869 39.1546 29.1146C39.0087 28.8423 38.7978 28.6102 38.5406 28.4391ZM28.125 33.9961V26.0156L34.1203 30L28.125 33.9961ZM54.9211 16.2938C54.7003 15.4297 54.2771 14.6306 53.6867 13.9623C53.0962 13.294 52.3552 12.7756 51.525 12.45C43.4906 9.34688 30.7031 9.37501 30 9.37501C29.2969 9.37501 16.5094 9.34688 8.475 12.45C7.64476 12.7756 6.90383 13.294 6.31335 13.9623C5.72286 14.6306 5.29975 15.4297 5.07891 16.2938C4.47188 18.6328 3.75 22.9078 3.75 30C3.75 37.0922 4.47188 41.3672 5.07891 43.7063C5.29942 44.5707 5.72238 45.3703 6.31289 46.0391C6.90339 46.7078 7.64449 47.2265 8.475 47.5523C16.1719 50.5219 28.2188 50.625 29.8453 50.625H30.1547C31.7812 50.625 43.8352 50.5219 51.525 47.5523C52.3555 47.2265 53.0966 46.7078 53.6871 46.0391C54.2776 45.3703 54.7006 44.5707 54.9211 43.7063C55.5281 41.3625 56.25 37.0922 56.25 30C56.25 22.9078 55.5281 18.6328 54.9211 16.2938ZM51.2906 42.7781C51.2192 43.0657 51.0806 43.3322 50.8863 43.5559C50.692 43.7795 50.4474 43.954 50.1727 44.0648C42.7547 46.9289 30.1383 46.8773 30.0164 46.8773H30C29.8734 46.8773 17.2664 46.9242 9.84375 44.0648C9.56899 43.954 9.32443 43.7795 9.1301 43.5559C8.93577 43.3322 8.79721 43.0657 8.72578 42.7781C8.15625 40.6383 7.5 36.6961 7.5 30C7.5 23.3039 8.15625 19.3617 8.70937 17.2336C8.77948 16.9443 8.91743 16.6759 9.11184 16.4505C9.30624 16.2252 9.5515 16.0493 9.82734 15.9375C16.9805 13.1742 28.9664 13.125 29.9484 13.125H30.0117C30.1383 13.125 42.757 13.0828 50.168 15.9375C50.4427 16.0484 50.6873 16.2228 50.8816 16.4465C51.076 16.6701 51.2145 16.9367 51.2859 17.2242C51.8438 19.3617 52.5 23.3039 52.5 30C52.5 36.6961 51.8438 40.6383 51.2906 42.7664V42.7781Z" fill="#12285F"/>
</svg>
